# xmcd
#
# Track frame offsets:
#	150
#	16245
#	28284
#	39596
#	51968
#	64123
#	75661
#	88687
#	100517
#	110574
#	120861
#	130095
#	135825
#	139389
#	150396
#	163881
#	176529
#	188478
#	204103
#	209734
#
# Disc length: 2965
#
# Revision: 1
# Processed by: cddbd v1.5.1PL0 Copyright (c) Steve Scherf et al.
# Submitted via: dBpowerAMP V4.0
# Normalized: r0:TRMNUM
#
DISCID=060b9314
DTITLE=Tulio Enrique Leon - Coleccion de Exitos
DYEAR=1996
DGENRE=Country
TTITLE0=Amparito
TTITLE1=Cumbia algarrobera
TTITLE2=El mechon
TTITLE3=El porro
TTITLE4=Esta noche es mia
TTITLE5=La cañaguatera
TTITLE6=La Piragua
TTITLE7=La pollera amarilla
TTITLE8=La renga
TTITLE9=La yavillita
TTITLE10=La yerbita
TTITLE11=Playas marinas
TTITLE12=Quiero amanecer
TTITLE13=Ron y tabaco
TTITLE14=Sal y agua
TTITLE15=Se murio camilo
TTITLE16=Tren de seis
TTITLE17=Tres perlas
TTITLE18=Voy hacia ti
TTITLE19=Watuzi
EXTD=
EXTT0=
EXTT1=
EXTT2=
EXTT3=
EXTT4=
EXTT5=
EXTT6=
EXTT7=
EXTT8=
EXTT9=
EXTT10=
EXTT11=
EXTT12=
EXTT13=
EXTT14=
EXTT15=
EXTT16=
EXTT17=
EXTT18=
EXTT19=
PLAYORDER=
